<svg xmlns="http://www.w3.org/2000/svg" version="1.1" xmlns:xlink="http://www.w3.org/1999/xlink" xmlns:svgjs="http://svgjs.com/svgjs" width="1000" height="1000"><rect width="1000" height="1000" rx="150" ry="150" fill="#413b41"></rect><g transform="matrix(6.382978723404255,0,0,6.382978723404255,51.17617132308635,359.6374471948502)"><svg xmlns="http://www.w3.org/2000/svg" version="1.1" xmlns:xlink="http://www.w3.org/1999/xlink" xmlns:svgjs="http://svgjs.com/svgjs" width="141" height="44"><svg width="141" height="44" viewBox="0 0 141 44" fill="none" xmlns="http://www.w3.org/2000/svg">
<path d="M23.2205 0C26.1899 0 29.0998 0.44482 31.9504 1.33446C34.801 2.18366 37.2755 3.33615 39.3738 4.79193L34.3259 13.6479C32.3068 12.3134 30.0698 11.2216 27.6152 10.3724C25.2001 9.48276 23.1413 9.03794 21.4389 9.03794C20.0532 9.03794 18.9446 9.30079 18.1132 9.82649C17.2817 10.3522 16.8264 11.1205 16.7472 12.1315C16.7076 13.4255 17.2619 14.4162 18.4101 15.1037C19.5979 15.7911 21.4785 16.5392 24.0519 17.348C26.6254 18.1568 28.7435 18.9655 30.4063 19.7743C32.1088 20.5426 33.5539 21.7153 34.7416 23.2924C35.969 24.8291 36.5826 26.851 36.5826 29.3581C36.5826 32.4719 35.771 35.1408 34.1478 37.3649C32.5641 39.5486 30.3866 41.2065 27.6152 42.3388C24.8833 43.4306 21.8546 43.9766 18.5289 43.9766C15.0448 43.9766 11.6597 43.37 8.37363 42.1568C5.08753 40.9437 2.29631 39.2655 0 37.1223L5.04793 28.3876C6.94832 30.2882 9.26444 31.8653 11.9963 33.1189C14.7677 34.332 17.2619 34.9386 19.4791 34.9386C21.2211 34.9386 22.587 34.6151 23.5768 33.9681C24.5666 33.2807 25.0615 32.2899 25.0615 30.9959C25.0615 30.1063 24.7448 29.3784 24.1113 28.8122C23.4778 28.2057 22.686 27.7204 21.7358 27.3565C20.7856 26.9925 19.4197 26.5275 17.6381 25.9613C15.0646 25.2334 12.9465 24.4853 11.2836 23.717C9.62075 22.9487 8.19547 21.8164 7.00772 20.3202C5.81997 18.824 5.22609 16.8627 5.22609 14.4364C5.22609 11.5249 5.97833 8.99751 7.48281 6.85428C8.98729 4.67062 11.0857 2.99243 13.7779 1.81972C16.5097 0.606573 19.6572 0 23.2205 0Z" fill="#E5D1FF"></path>
<path d="M58.8391 10.1299C63.3525 10.1299 66.9158 11.3835 69.5288 13.8906C72.1419 16.3978 73.4484 19.8351 73.4484 24.2024C73.4484 24.8898 73.4285 25.4155 73.389 25.7795L51.4156 31.0567C51.8907 32.472 52.6628 33.584 53.7317 34.3928C54.8007 35.1611 56.1073 35.5453 57.6513 35.5453C59.037 35.5453 60.4425 35.2016 61.8678 34.5141C63.2931 33.8267 64.659 32.8359 65.9656 31.5419L71.4292 37.0011C67.3117 41.4493 62.1846 43.6734 56.0479 43.6734C52.8409 43.6734 50.0299 43.0668 47.6148 41.8537C45.2393 40.6001 43.3983 38.841 42.0918 36.5765C40.8249 34.3119 40.1914 31.6835 40.1914 28.691C40.1914 25.0516 40.9635 21.8367 42.5075 19.0465C44.0912 16.2158 46.2885 14.0322 49.0995 12.4955C51.9501 10.9184 55.1966 10.1299 58.8391 10.1299ZM63.3525 22.0794C63.115 20.664 62.5607 19.5924 61.6897 18.8645C60.8582 18.1366 59.7695 17.7727 58.4233 17.7727C56.4438 17.7727 54.8007 18.4197 53.4942 19.7137C52.1877 21.0078 51.3761 22.8073 51.0593 25.1122L63.3525 22.0794Z" fill="#E5D1FF"></path>
<path d="M91.2389 15.5889C94.1291 11.909 97.8309 10.0691 102.344 10.0691L101.097 19.9562C100.741 19.9158 100.226 19.8956 99.5531 19.8956C96.9401 19.8956 94.6438 20.6032 92.6642 22.0186C90.7242 23.4339 89.4771 25.2536 88.9228 27.4777L85.8346 43.3093H75.2637L81.6775 10.4937H92.2485L91.2389 15.5889Z" fill="#E5D1FF"></path>
<path d="M114.135 43.734C111.72 43.734 109.563 43.1275 107.662 41.9143C105.762 40.7012 104.277 39.0028 103.208 36.8191C102.179 34.6354 101.664 32.1283 101.664 29.2976C101.664 25.739 102.397 22.504 103.861 19.5924C105.366 16.6809 107.405 14.3759 109.978 12.6775C112.591 10.9791 115.462 10.1299 118.589 10.1299C120.965 10.1299 123.004 10.6354 124.706 11.6463C126.409 12.6168 127.696 14.0524 128.567 15.953L129.636 10.4938H140.206L136.109 31.3599C135.99 31.8452 135.931 32.2698 135.931 32.6338C135.931 33.1999 136.069 33.6245 136.346 33.9076C136.623 34.1502 137.079 34.2715 137.712 34.2715C138.583 34.2715 139.533 34.0491 140.563 33.6043L138.722 43.1275C137.217 43.5319 135.931 43.734 134.862 43.734C130.586 43.734 127.795 41.7121 126.488 37.6683L126.25 36.8191C124.627 39.0432 122.766 40.7618 120.668 41.975C118.609 43.1477 116.432 43.734 114.135 43.734ZM118.233 35.424C119.698 35.424 121.064 34.9994 122.331 34.1502C123.598 33.301 124.588 32.1485 125.3 30.6927C126.052 29.2369 126.429 27.6396 126.429 25.9008C126.429 23.8384 125.874 22.2007 124.766 20.9875C123.697 19.734 122.252 19.1072 120.43 19.1072C118.966 19.1072 117.6 19.552 116.333 20.4416C115.105 21.2908 114.116 22.4433 113.363 23.8991C112.651 25.3549 112.294 26.932 112.294 28.6304C112.294 30.6927 112.829 32.3507 113.898 33.6043C115.006 34.8174 116.452 35.424 118.233 35.424Z" fill="#E5D1FF"></path>
</svg></svg></g></svg>